# xmcd
#
# Track frame offsets:
#	150
#	19447
#	34487
#	52697
#	77390
#	93686
#	107108
#	124286
#	139451
#
# Disc length: 2091 seconds
#
# Revision: 0
# Processed by: cddbd v1.5.1PL0 Copyright (c) Steve Scherf et al.
# Submitted via: audiograbber 1.83.01
#
DISCID=7b082909
DTITLE=Jinx - Second Hand
DYEAR=1997
DGENRE=Pop
TTITLE0=Astro party
TTITLE1=Vikendboj
TTITLE2=Brazil
TTITLE3=Sve se jednom mora vratiti
TTITLE4=Smijem se
TTITLE5=Cuvar mocvara i trava
TTITLE6=Do kraja vremena
TTITLE7=Ruke
TTITLE8=Zmija and zmaj
EXTD=
EXTT0=
EXTT1=
EXTT2=
EXTT3=
EXTT4=
EXTT5=
EXTT6=
EXTT7=
EXTT8=
PLAYORDER=
